<svg id="design" xmlns="http://www.w3.org/2000/svg" xmlns:xlink="http://www.w3.org/1999/xlink" viewBox="0 0 150 195">
  <g id="XMLID_1_">
    <defs>
      <path id="XMLID_27_" d="M68.3 4.6h163.1v178.8H68.3z"/>
    </defs>
    <clipPath id="XMLID_29_">
      <use xlink:href="#XMLID_27_" overflow="visible"/>
    </clipPath>
    <g id="XMLID_409_" class="st0">
      <path fill="#3050A1" id="XMLID_410_" class="st1" d="M220 41v-6.5-.1l-5.6-3.3 1.8-3.1 1.8-3.1 5.6 3.2v-.4l-5.6-3.2 5.6-9.6v-.7l-4.2-7.3 4.2-2.4v-.4l-4.3 2.5-3.9-6.6h-.4l-3.3 5.7-4.8.2V0h-.3v5.9l-13.9.6L182.5 0h-.6l-4 2.6 2.2 4.3-4.8.2-.1.1-.2 4.8-4.3-2.2h-.1l-2.6 4.1-2.6-4.1h-.1L161 12l-.2-4.8v-.1l-4.8-.2 2.2-4.3v-.1c0-.1 0-.1-.1-.1l-4-2.6h-.6l-10.2 6.5-13.9-.6V0h-.3v5.9l-4.8-.2-3.9-5.7h-.4l-3.8 6.6-4.3-2.5-4.3 2.5-4-6.6h-.4l-3.3 5.7-4.8.2V0h-.3v5.9l-13.9.6L70.7 0h-.6l-4 2.6 2.2 4.3-4.8.2-.5 5.2-4.3-2.2h-.1L56 14.2l-2.6-4.1h-.1L49 12.3l-.2-4.8v-.1L44 7.2l2.2-4.3v-.1c0-.1 0-.1-.1-.1l-4-2.6h-.6L30.9 6.5 17 5.9V0h-.3v5.9l-4.8-.2L8.6 0h-.4L4.4 6.6.1 4.2v.4L4.3 7 0 14.2v.7l5.6 9.6L0 27.7v.3l5.6-3.2 1.8 3.1L9.2 31l-5.6 3.3v6.5H0v.3h3.6v12.5c0 .1 0 .1.1.1l3.4 2L0 60.1v.4L6.1 64l.4 7.8L0 82v.6l2.6 4.1h.1L7 84.5l.2 4.8v.1l4.8.2-1.9 4.4 4 2.6-4 2.6 2.2 4.3-4.8.2v.1l-.2 4.8-4.3-2.2h-.1L0 111v.6l6.5 10.2-.4 7.8-6.1 3.6v.4l7.1 4.1-3.4 2c-.1 0-.1.1-.1.1v12.5H0v.3h3.6v6.5l5.6 3.3-1.8 3.1-1.8 3.1-5.6-3.2v.4l5.6 3.2-5.6 9.7v.7l4.2 7.3-4.2 2.4v.4l4.3-2.5 3.8 6.6h.4l3.3-5.7 4.8-.2v5.9h.4v-5.9l13.9-.6 10.2 6.5h.6l4-2.6.1-.1v-.1l-2.2-4.3 4.8-.2v-.1l.2-4.8 4.3 2.2h.1l2.6-4.1 2.6 4.1h.1l4.3-2.2.2 4.8 4.8.2-2.2 4.3 4 2.6h.6l10.2-6.5 13.9.6v5.9h.3v-5.9l4.8.2 3.3 5.7h.4l3.8-6.6 4.3 2.5 4.3-2.5 3.8 6.6h.4l3.3-5.7 4.8-.2v5.9h.3v-5.9l13.9-.6 10.2 6.5h.6l4-2.6.1-.1v-.1l-2.2-4.3 4.8-.2v-.1l.2-4.8 4.3 2.2h.1l2.6-4.1 2.6 4.1h.1l4.3-2.2.2 4.8v.1l4.8.2-2.2 4.3 4 2.6h.6l10.2-6.5 13.9.6v5.9h.3v-5.9l4.8.2 3.3 5.7h.4l3.8-6.6 4.3 2.5v-.4l-4.2-2.4 4.2-7.3v-.7l-5.6-9.6 5.6-3.2v-.4l-5.6 3.2-1.8-3.1-1.8-3.1 5.6-3.3v-6.6h3.6v-.3H220v-12.5c0-.1 0-.1-.1-.1l-3.4-2 7.1-4.1v-.4l-6.1-3.5-.4-7.8 6.5-10.2v-.2l-2.6-4.1h-.1l-4.3 2.2-.2-4.8v-.1l-4.8-.2 2.2-4.3v-.1c0-.1 0-.1-.1-.1l-4-2.6 4-2.6.1-.1v-.1l-2.2-4.3 4.8-.2v-.1l.2-4.8 4.3 2.2h.1l2.6-4.1V82l-6.5-10.2.4-7.8 6.1-3.5v-.4l-7.1-4.1 3.4-2c.1 0 .1-.1.1-.1V41.4h3.6V41H220zm-.4-6.4V41h-11.1l5.6-9.6 5.5 3.2zm-5.8-3.4l-5.7 9.8h-8.6V27l3.5-2 10.8 6.2zm-17.5 30.3v.2l2.2 4.3-6.5 3.7V55.8h7.5l-3.2 5.7zm3.6-5.7h6.6l2.6 4-5.1 3-5.1 3-2.2-4.2 3.2-5.8zm-1.8 18.9l-6 3.5V70l6.6-3.8 6.2 11.9-6.6-3.4h-.2zm.2 44.2l6.6-3.4-6.2 11.9-6.6-3.8v-8.2l6 3.5h.2zm1 28.3c-.1 0-.1 0 0 0-.1.1-.1.1 0 0-.1.1-.1.1 0 0l-.1.1v5h-7.7l-3.8-6.6 4.3-2.5v-5.1h7.7l3.8 6.6-4.2 2.5zm4.4-2.2l4.2 7.3h-8.4v-4.9l4.2-2.4zm-12-2l-4.2 2.4-4.2-7.3h8.4v4.9zm-4.5 2.6l-12.1 7-3.5-2v-12.4h11.3l4.3 7.4zm-15.9 5.1c0 .1 0 .1.1.1l3.4 2-7.1 4.1-7.1-4.1 3.4-2c.1 0 .1-.1.1-.1v-12.5h7.2v12.5zm21.7 20.9l-6.6 3.4 6.2-11.9 6.6 3.8v8.2l-6-3.5c-.1-.1-.2-.1-.2 0zm-7.2 3.6l-10.8 5.6-.6-12.1L182 157l5.1 3 5.1 3-6.4 12.2zm-43.6-3.6l-6 3.5v-8.2l6.6-3.8L149 175l-6.6-3.4c-.1-.1-.1-.1-.2 0zm-61 0l-6.6 3.4 6.2-11.9 6.6 3.8v8.2l-6-3.5c-.1-.1-.2-.1-.2 0zm-50.8 0l-6 3.5v-8.2L31 163l6.2 11.9-6.6-3.4c-.1 0-.1 0-.2.1zm-3.1-39.4c0-.1 0-.1 0 0v-.2l-2.2-4.3 6.5-3.7v13.8H24l3.3-5.6zm-3.6 5.6h-6.6l-2.6-4 5.1-3 5.1-3 2.2 4.2-3.2 5.8zm1.8-18.9l6-3.5v8.2l-6.6 3.8-6.2-11.9 6.6 3.4h.2zm-.2-44.2l-6.6 3.4 6.2-11.9 6.6 3.8v8.2l-6-3.5h-.2zm-1-28.3c.1 0 .1-.1 0 0 .1-.1.1-.1 0 0l.1-.1v-5h7.7l3.8 6.6-4.3 2.5v5h-7.7L20 48.9l4.3-2.5zm-4.5 2.2l-4.2-7.3H24v4.9l-4.2 2.4zm12 2.1l4.2-2.4 4.2 7.3h-8.4v-4.9zm4.5-2.6l12.1-7 3.5 2v12.4H40.6l-4.3-7.4zm16-5.1c0-.1 0-.1-.1-.1l-3.4-2 7.1-4.1 7.1 4.1-3.4 2c-.1 0-.1.1-.1.1v12.5h-7.2V43zM30.6 22.1l6.6-3.4L31 30.6l-6.6-3.8v-8.2l6 3.5h.2zm7.1-3.7l10.8-5.6.6 12.1-7.5 11.8-5.1-3-5.1-3 6.3-12.3zm43.6 3.7l6-3.5v8.2l-6.6 3.8-6.2-11.9 6.6 3.4h.2zm61.1 0l6.6-3.4-6.2 11.9-6.6-3.8v-8.2l6 3.5h.2zm50.7 0l6-3.5v8.2l-6.6 3.8-6.2-11.9 6.6 3.4h.2zm-.8 8.6l-5.1 3-5.1 3-7.5-11.8.6-12.1 10.8 5.6 6.3 12.3zM174.2 25l-.4 7.8-6.1 3.5-6.1-3.5-.4-7.8 6.5-10.2 6.5 10.2zm-27 47.2l10.8-6.3 1.8 3.1 1.8 3.1-10.9 6.2c-.1 0-.1.1-.1.1v3.9l-7.1-4.1V70l3.4 2c.2.3.3.3.3.2zm30.3 55.8l10.8-6.3 3.5 2v14h-8.6l-5.7-9.7zm5.2 9.8h-11.1v-6.4l5.5-3.2 5.6 9.6zm-11.3-6.7c0 .1 0 .1 0 0 0 .1-.1.1 0 0-.1.1-.1.1 0 0l-.1.1v6.5h-7.2v-6.5-.1l-5.6-3.3 1.8-3.1 1.8-3.1 5.6 3.2 5.6-3.2 1.8 3.1 1.8 3.1-5.5 3.3zm-59.5 34.5c-.1 0-.1 0 0 0-.1 0-.1 0 0 0h-.1l-5.6 3.2-1.8-3.1-1.8-3.1 5.6-3.3v-6.6h7.2v6.5l5.6 3.3-1.8 3.1-1.8 3.1-5.5-3.1zm5.4 3.5l-5.6 9.6-5.6-9.6 5.6-3.2 5.6 3.2zm-46.9-12.4l2.6-4h6.6l3.3 5.7-2.2 4.2-5.1-3-5.2-2.9zm-.5.1l-7.2 11.3-.3-7.4c0-.1 0-.1-.1-.1l-6-3.5 7.1-4.1 6.5 3.8zm13.3 1.6v-.2l-3.2-5.6h7.5v13.8l-6.5-3.7 2.2-4.3zm4.5-5.7h8.6l5.7 9.8-10.8 6.3-3.5-2v-14.1zm9 0h11.1v6.4l-5.5 3.2-5.6-9.6zm19 0h11.1l-5.6 9.6-5.5-3.2v-6.4zm5.9 9.7l5.7-9.8h8.6v14l-3.5 2-10.8-6.2zm14.6-9.7h7.5l-3.2 5.6v.2l2.2 4.3-6.5 3.7v-13.8zm4.5 5.7l3.3-5.7h6.6l2.6 4-5.1 3-5.1 3-2.3-4.3zm19.6-5.4l7.1 4.1-6 3.5-.1.1-.3 7.4-7.2-11.3 6.5-3.8zm-6.8 3.5l-2.6-4.1-.1-.1h-6.5l3.7-6.5 12 6.9-6.5 3.8zm-80.8-4.1l-2.6 4.1-6.5-3.7 12-6.9 3.7 6.5h-6.5c0-.1 0 0-.1 0zm19.5-7.5l12.1-7 3.5 2v12.4H96.5l-4.3-7.4zm4 7.4h-8.4v-4.9L92 145l4.2 7.3zm-8.7-5.1s-.1 0 0 0c-.1.1-.1.1 0 0-.1.1-.1.1 0 0l-.1.1v5h-7.7l-3.8-6.6 4.3-2.5v-5.1h7.7l3.8 6.6-4.2 2.5zM80 143l-4.2 2.4-4.2-7.3H80v4.9zm-4.5 2.6l-12.1 7-3.5-2v-12.4h11.3l4.3 7.4zm51.9 6.7l4.2-7.3 4.2 2.4v4.9h-8.4zm-.4 0h-11.3v-12.4l3.5-2 12.1 7-4.3 7.4zm-11.5-12.7c-.1 0-.1.1-.1.1v12.5h-7.2v-12.5c0-.1 0-.1-.1-.1l-3.4-2 7.1-4.1 7.1 4.1-3.4 2zm-39.1-18.2l-10.8 6.3-1.8-3.1-1.8-3.1 10.9-6.2c.1 0 .1-.1.1-.1v-3.9l7.1 4.1v8.2l-3.4-2c-.2-.2-.3-.2-.3-.2zM46.1 65.6l-10.8 6.3-3.5-2v-14h8.6l5.7 9.7zm-5.3-9.8h11.1v6.4l-5.5 3.2-5.6-9.6zm11.4 6.7c0-.1 0-.1 0 0 0-.1 0-.1 0 0l.1-.1v-6.5h7.2v6.5l5.6 3.3-1.8 3.1-1.7 3.2-5.6-3.2-5.8 3.2-1.8-3.1-1.8-3.1 5.6-3.3zm94.8 58.9l-3.4 2v-8.2l7.1-4.1v3.9c0 .1 0 .1.1.1l10.9 6.2-1.8 3.1-1.8 3.1-10.8-6.3c-.1.2-.2.2-.3.2zM76.5 72.2l3.4-2v8.2l-7.1 4.1v-3.9c0-.1 0-.1-.1-.1l-10.9-6.2 1.8-3.1 1.8-3.1 10.8 6.3c.2-.1.3-.1.3-.2zm38.1 14.6l4.3-2.2.2 4.8v.1l4.8.2-2.2 4.3 4 2.6-4 2.6 2.2 4.3-4.8.2v.1l-.2 4.8-4.3-2.2h-.1l-2.6 4.1-2.6-4.1h-.1l-4.3 2.2-.2-4.8v-.1l-4.8-.2 2.2-4.3v-.1c0-.1 0-.1-.1-.1l-4-2.6 4-2.6.1-.1v-.1l-2.2-4.3 4.8-.2V89l.2-4.8 4.3 2.2h.1l2.6-4.1 2.6 4.1c0 .4 0 .4.1.4-.1 0-.1 0 0 0-.1 0-.1 0 0 0zm4.6 22.5l.2-4.8 4.8-.2 5.4 10.4-10.4-5.4zm-.3.1l-.5 11.8-6.3-9.9 2.6-4.1 4.2 2.2zm5.7-5.2l12.1-.5 6.6 4.2v7.1l-6.1 3.5-7-3.6-5.6-10.7zm-.2-.3l-2.2-4.3 4-2.6 9.9 6.4-11.7.5zm19.2 3.9c0-.1 0-.1-.1-.1l-6.3-4 13.4-.6v7.6l-7.1 4.1v-7zm-6.8-4.4l-10.2-6.5 10.2-6.5 13.9.6v11.8l-13.9.6zm-10.5-6.8l-4-2.6 2.2-4.3 11.8.5-10 6.4zM99 89.4l-12.1.5-6.6-4.2v-7.1l6.1-3.5 7 3.6L99 89.4zm-5.1-10.5l10.5 5.4-.2 4.8-4.8.2-5.5-10.4zm5.2 10.8l2.2 4.3-4 2.6-9.9-6.4 11.7-.5zM80 85.8c0 .1 0 .1.1.1l6.3 4-13.4.6v-7.6l7.1-4.1v7zm6.8 4.5L97 96.8l-10.2 6.5-13.9-.6V90.9l13.9-.6zM97.3 97l4 2.6-2.2 4.3-11.8-.5 10-6.4zM109 86.4l-4.3-2.2.5-11.8 6.3 9.9-2.5 4.1zm-4.6-2.4l-10.8-5.6L87.2 66l5.1-3 5.1-3 7.5 11.8-.5 12.2zm-11.3-5.8l-6.6-3.4h-.2l-6 3.5v-8.2l6.6-3.8 6.2 11.9zm-20.6.5v4l-12.1 7-4.3-7.5 5.7-9.8 10.7 6.3zm0 4.4v7.5l-4.9.2c-.1 0-.1 0-.1.1l-3.2 5.6-3.7-6.5 11.9-6.9zm-4.7 8l4.8-.2v11.8l-4.8-.2-3.3-5.7 3.3-5.7zm-.3 11.7l.1.1 4.9.2v7.5l-12-6.9 3.7-6.5 3.3 5.6zm5 8.1v4l-10.8 6.2-5.7-9.8 4.3-7.5 12.2 7.1zm.4-.2v-7.6l13.4.6-6.3 4-.1.1v7l-7-4.1zm7.4-2.8l6.6-4.2 12.1.5-5.6 10.7-7 3.6-6.1-3.5v-7.1zm19-3.7l4.8.2.2 4.8-10.5 5.4 5.5-10.4zm9.7 3l2.6 4.1-6.3 9.9-.5-11.8 4.2-2.2zm2.8 4.4l6.5 10.2-.4 7.8-6.1 3.5-6.1-3.5-.4-7.8 6.5-10.2zm6.8 10.1l.6-12.1 10.8 5.6 6.4 12.4-5.1 3-5.1 3-7.6-11.9zm11.9-6.2l6.6 3.4h.2l6-3.5v8.2l-6.6 3.8-6.2-11.9zm20.5-.5v-4l12.1-7 4.3 7.5-5.7 9.8L151 115zm0-4.5V103l4.9-.2c.1 0 .1 0 .1-.1l3.2-5.6 3.7 6.5-11.9 6.9zm4.8-8l-4.8.2V90.9l4.8.2 3.3 5.7-3.3 5.7zm.2-11.6l-.1-.1-4.9-.2v-7.5l12 6.9-3.7 6.5-3.3-5.6zm-5-8.2v-4l10.8-6.2 5.7 9.8-4.3 7.5-12.2-7.1zm-.3.2v7.6l-13.4-.5 6.3-4 .1-.1v-7l7 4zm-7.4 2.8l-6.6 4.2-12.1-.5 5.6-10.7 7-3.6 6.1 3.5v7.1zm-19.1 3.7l-4.8-.2-.2-4.8 10.5-5.4-5.5 10.4zm-9.6-3l-2.6-4.1 6.3-9.9.5 11.8-4.2 2.2zm-2.8-4.4l-6.5-10.2.4-7.8 6.1-3.5 6.1 3.5.4 7.8-6.5 10.2zm-6.4-18.3l-.1.1-.3 7.4L97.7 60l6.6-3.8 7.1 4.1-6 3.4zm-13.2-.9l-5.1 3-2.2-4.2 3.3-5.7h6.6l2.6 4-5.2 2.9zm-7.7-1.3v.2l2.2 4.3-6.5 3.7V55.8h7.5l-3.2 5.7zM80 69.9l-3.5 2-10.8-6.3 5.7-9.8H80v14.1zm-14.6-4.4l-5.5-3.2v-6.4H71l-5.6 9.6zm-9.5 3.6l5.6 3.2-5.6 9.6-5.6-9.6 5.6-3.2zm-.2 13.2l-4.3 7.5-12.1-7v-4l10.8-6.2 5.6 9.7zm.2.3l4.2 7.3-4.2 2.4-4.2-2.4 4.2-7.3zm-.1 10.1s.1 0 0 0c.1 0 .1 0 0 0h.1l4.3-2.5 3.8 6.6-3.8 6.6L56 101l-4.3 2.5-3.8-6.6 3.8-6.6 4.1 2.4zm.1 8.6l4.2 2.4-4.2 7.3-4.2-7.3 4.2-2.4zm-.2 10.1l-5.7 9.8-10.7-6.2v-4l12.1-7 4.3 7.4zm.2.3l5.6 9.6-5.6 3.2-5.6-3.2 5.6-9.6zm24.4 3.7l6 3.5h.2l6.6-3.4-6.2 11.9-6.6-3.8v-8.2zm13.3-.2l10.8-5.6.6 12.1-7.5 11.8-5.1-3-5.1-3 6.3-12.3zm11.4 7.1l.3 7.4c0 .1 0 .1.1.1l6 3.5-7.1 4.1-6.6-3.8 7.3-11.3zm7.1 11.1l6-3.5.1-.1.3-7.4 7.2 11.3-6.6 3.8-7-4.1zm19.3-2.6l5.1-3 2.2 4.2-3.3 5.7h-6.6l-2.6-4 5.2-2.9zm7.7 1.4c0-.1 0-.1 0 0v-.2l-2.2-4.3 6.5-3.7v13.8h-7.5l3.2-5.6zm4.5-8.4l3.5-2 10.8 6.3-5.7 9.8h-8.6v-14.1zm14.6 4.4l5.5 3.2v6.4h-11.1l5.6-9.6zm9.5-3.7l-5.6-3.2 5.6-9.6 5.6 9.6-5.6 3.2zm.2-13.1l4.3-7.5 12.1 7v4l-10.8 6.2-5.6-9.7zm-.2-.4l-4.2-7.3 4.2-2.4 4.2 2.4-4.2 7.3zm.1-10c-.1 0-.1 0 0 0-.1-.1-.1-.1 0 0h-.1l-4.3 2.5-3.8-6.6 3.8-6.6 4.3 2.5 4.3-2.5 3.8 6.6-3.8 6.6-4.2-2.5zm-.1-8.7l-4.2-2.4 4.2-7.3 4.2 7.3-4.2 2.4zm.2-10l5.7-9.8 10.8 6.2v4l-12.1 7-4.4-7.4zm-.2-.4l-5.6-9.6 5.6-3.2 5.6 3.2-5.6 9.6zm-24.4-3.7l-6-3.5h-.2l-6.6 3.4 6.2-11.9 6.6 3.8v8.2zm-13.4.2L119.2 84l-.6-12.1 7.5-11.8 5.1 3 5.1 3-6.4 12.3zm-11.3-7.1l-.3-7.4c0-.1 0-.1-.1-.1l-6-3.5 7.1-4.1 6.6 3.8-7.3 11.3zm-6.8-11.2l-7.1-4.1 3.4-2c.1 0 .1-.1.1-.1V41.4h7.2v12.5c0 .1 0 .1.1.1l3.4 2-7.1 4.1zM96.5 41.3h11.3v12.4l-3.5 2-12.1-7 4.3-7.4zm-4.6 7.3l-4.2-2.4v-4.9h8.4l-4.2 7.3zm23.8 5.1V41.3H127l4.3 7.5-12.1 7-3.5-2.1zm11.7-12.4h8.4v4.9l-4.2 2.4-4.2-7.3zm8.7 5.1s.1-.1 0 0c.1-.1.1-.1 0 0l.1-.1v-5h7.7l3.8 6.6-4.3 2.5v5h-7.7l-3.8-6.6 4.2-2.4zm7.5 4.3l4.2-2.4 4.2 7.3h-8.4v-4.9zm4.5-2.6l12.1-7 3.5 2v12.4h-11.3l-4.3-7.4zm-.1-.3l-3.7-6.5h6.5c.1 0 .1 0 .1-.1l2.6-4.1 6.5 3.7-12 7zM111.7 28c.1 0 .1 0 0 0h.1l5.6-3.2 1.8 3.1L121 31l-5.6 3.3v6.5h-7.2v-6.5-.1l-5.6-3.3 1.8-3.1 1.8-3.1 5.5 3.3zm-5.5-3.5l5.6-9.6 5.6 9.6-5.6 3.2-5.6-3.2zm34.2 10.7v.2l3.2 5.6h-7.5V27.1l6.5 3.7-2.2 4.4zm2.5-4.2l5.1 3 5.1 3-2.6 4H144l-3.3-5.7 2.2-4.3zm-7.1 10h-8.6l-5.7-9.8 10.8-6.3 3.5 2V41zm-9 0h-11.1v-6.4l5.5-3.2 5.6 9.6zm-19 0H96.7l5.6-9.6 5.5 3.2V41zm-5.8-9.8L96.3 41h-8.6V27l3.5-2 10.8 6.2zM87.4 41h-7.5l3.2-5.6v-.1-.1l-2.2-4.3 6.5-3.7V41zm-4.6-5.7L79.5 41H73l-2.6-4 5.1-3 5.1-3 2.2 4.3zm-19.5 5.4l-7.1-4.1 6-3.5.1-.1.3-7.4 7.2 11.3-6.5 3.8zm6.8-3.6l2.6 4.1.1.1h6.5l-3.7 6.5-12-6.9 6.5-3.8zm83.5-.3l7.2-11.3.3 7.4c0 .1 0 .1.1.1l6 3.5-7.1 4.1-6.5-3.8zm-.2-.1l-5.1-3-5.1-3 6.4-12.4 10.8-5.6.6 12.1-7.6 11.9zm-17.6-10.1l-3.4-2h-.2l-10.8 6.3-1.8-3.1-1.8-3.1 10.9-6.2c.1 0 .1-.1.1-.1v-3.9l7.1 4.1v8zm-7.4-8.5l-10.8 6.2-5.7-9.8 4.3-7.5 12.1 7v4.1zm-22.5 6.2l-10.8-6.2v-4l12.1-7 4.3 7.5-5.6 9.7zm-11.1-6.1c0 .1 0 .1.1.1l10.9 6.2-1.8 3.1-1.8 3.1-10.8-6.3h-.2l-3.4 2v-8.2l7.1-4.1v4.1zM80.5 30.7l-5.1 3-5.1 3-7.5-11.8.6-12.1 10.8 5.6 6.3 12.3zM62.4 25l-.4 7.8-6.1 3.5-6.1-3.5-.4-7.8 6.5-10.2L62.4 25zm-13.3.5l.3 7.4c0 .1 0 .1.1.1l6 3.5-7.1 4.1-6.6-3.8 7.3-11.3zm10.7 17.6l3.5-2 12.1 7-4.3 7.5H59.8V43.1zm15.9 5.1l4.2 2.4v4.9h-8.4l4.2-7.3zm4.6 2.4c0-.1 0-.1 0 0 0-.1 0-.1 0 0v-.1L76 48l3.8-6.6h7.7v5l4.3 2.5-3.8 6.6h-7.7v-4.9zM92.1 49l12 6.9-6.5 3.7-2.6-4-.1-.1h-6.5l3.7-6.5zm-68.4 6.8l3.3 5.7-2.2 4.2-5.1-3-5.1-3 2.6-4h6.5zm3.6 5.8v-.2L24 55.8h7.5v13.8L25 65.9l2.3-4.3zm4.5 8.6l3.4 2h.2l10.8-6.3L48 69l1.8 3.1L39 78.4c-.1 0-.1.1-.1.1v3.9l-7.1-4.1v-8.1zm7.1 12.7v7.6L25.5 90l6.3-4 .1-.1v-7l7 4zm.4.2l12 6.9-3.7 6.5-3.2-5.6-.1-.1-4.9-.2v-7.5zm4.7 8l3.3 5.7-3.3 5.7-4.8.2V90.9l4.8.2zm3.5 6l3.7 6.5-12 6.9V103l4.9-.2c.1 0 .1 0 .1-.1l3.3-5.6zm-8.6 13.6l-7.1 4.1v-7c0-.1 0-.1-.1-.1l-6.3-4 13.4-.6v7.6zm0 .4v3.9c0 .1 0 .1.1.1l10.9 6.2-1.8 3.1-1.8 3.1-10.8-6.3h-.2l-3.4 2V115l7-3.9zm-7.1 12.7l3.5-2 10.8 6.3-5.7 9.8h-8.6v-14.1zm14.6 4.4l5.5 3.2v6.4H40.8l5.6-9.6zm5.9 3.1s0-.1 0 0c-.1-.1-.1-.1 0 0v-.1l-5.6-3.3 1.8-3.1 1.8-3.1 5.6 3.2 5.6-3.2 1.8 3.1 1.8 3.1-5.6 3.3v6.5h-7.2v-6.4zm7.6.1l5.5-3.2 5.6 9.6H59.8l.1-6.4zm5.8-3.4l10.8-6.3 3.5 2v14h-8.6l-5.7-9.7zm14.6-4l6.5 3.7-2.2 4.3v.2l3.2 5.6h-7.5V124zm4.5 8.1l2.2-4.2 5.1 3 5.1 3-2.6 4H88l-3.2-5.8zm12.8 1.8l6.5 3.7-12 6.9-3.7-6.5h6.5c.1 0 .1 0 .1-.1l2.6-4zm-57.3 4.2l-4.2 7.3-4.2-2.4v-4.9h8.4zm.3 0h11.3v12.4l-3.5 2-12.1-7 4.3-7.4zm11.6 12.7c.1 0 .1-.1.1-.1v-12.5h7.2v12.5c0 .1 0 .1.1.1l3.4 2-7.1 4.1-7.1-4.1 3.4-2zm3.4 6.3l-6 3.5-.1.1-.3 7.4-7.2-11.3 6.6-3.8 7 4.1zm-19.3 2.5l-5.1 3-2.2-4.2 3.3-5.7h6.6l2.6 4-5.2 2.9zm-7.7-1.3v.2l2.2 4.3-6.5 3.7v-13.8h7.5l-3.2 5.6zm2.7 4.6l5.1-3 5.1-3 7.5 11.8-.6 12.1-10.8-5.6-6.3-12.3zm18.1 5.7l.4-7.8 6.1-3.5 6.1 3.5.4 7.8-6.5 10.2-6.5-10.2zM70.2 157l5.1 3 5.1 3-6.4 12.4-10.8 5.6-.6-12.1 7.6-11.9zm17.5 10.1l3.4 2h.2l10.8-6.3 1.8 3.1 1.8 3.1-10.9 6.2c-.1 0-.1.1-.1.1v3.9l-7.1-4.1v-8zm7.5 8.4l10.8-6.2 5.7 9.8-4.3 7.5-12.1-7v-4.1zm22.4-6.2l10.8 6.2v4l-12.1 7-4.3-7.5 5.6-9.7zm11.2 6.1c0-.1 0-.1-.1-.1l-10.9-6.2 1.8-3.1 1.8-3.1 10.8 6.3h.2l3.4-2v8.2l-7.1 4.1v-4.1zm14.3-12.5l5.1-3 5.1-3 7.5 11.8-.6 12.1-10.8-5.6-6.3-12.3zm18.1 5.7l.4-7.8 6.1-3.5 6.1 3.5.4 7.8-6.5 10.2-6.5-10.2zm13.3-.5l-.3-7.4c0-.1 0-.1-.1-.1l-6-3.5 7.1-4.1 6.6 3.8-7.3 11.3zm-10.7-17.5l-3.5 2-12.1-7 4.3-7.5h11.3v12.5zm-16-5.2l-4.2-2.4v-4.9h8.4l-4.2 7.3zm-4.5-2.3v.1l4.3 2.5-3.8 6.6h-7.7v-5-.1l-4.3-2.5 3.8-6.6h7.7v5zm-11.8 1.5l-12-6.9 6.5-3.7 2.6 4.1.1.1h6.5l-3.7 6.4zm68.4-6.8l-3.3-5.7 2.2-4.2 5.1 3 5.1 3-2.6 4h-6.5zm-3.6-5.8v.2l3.2 5.6H192V124l6.5 3.7-2.2 4.3zm-4.6-8.6l-3.4-2h-.2l-10.8 6.3-1.8-3.1-1.8-3.1 10.9-6.2c.1 0 .1-.1.1-.1v-3.9l7.1 4.1v8zm-7-12.7v-7.6l13.4.6-6.3 4-.1.1v7l-7-4.1zm-.4-.2l-12-6.9 3.7-6.5 3.2 5.6.1.1 4.9.2v7.5zm-4.7-8l-3.3-5.7 3.3-5.7 4.8-.2v11.8l-4.8-.2zm-3.5-6l-3.7-6.5 12-6.9v7.5l-4.9.2c-.1 0-.1 0-.1.1l-3.3 5.6zm8.6-13.6l7.1-4.1v7c0 .1 0 .1.1.1l6.3 4-13.4.6v-7.6zm0-.4v-3.9c0-.1 0-.1-.1-.1l-10.9-6.2 1.8-3.1 1.8-3.1 10.8 6.3h.2l3.4-2v8.2l-7 3.9zm7-12.6l-3.5 2-10.8-6.3 5.7-9.8h8.6v14.1zm-14.5-4.4l-5.5-3.2v-6.4h11.1l-5.6 9.6zm-5.9-3.2c0 .1 0 .1 0 0 0 .1 0 .1 0 0 0 .1 0 .1 0 0v.1l5.6 3.3-1.8 3.1-1.8 3.1-5.6-3.2L162 72l-1.8-3.1-1.8-3.1 5.6-3.3v-6.6h7.2l.1 6.4zm-7.6-.1l-5.5 3.2-5.6-9.6h11.1v6.4zm-5.8 3.4l-10.8 6.3-3.5-2v-14h8.6l5.7 9.7zm-14.6 4.1l-6.5-3.7 2.2-4.3v-.1-.1l-3.2-5.6h7.5v13.8zm-4.6-8.1l-2.2 4.2-5.1-3-5.1-3 2.6-4h6.6l3.2 5.8zM126 59.7l-6.5-3.7 12-6.9 3.7 6.5h-6.5c-.1 0-.1 0-.1.1l-2.6 4zm57.3-4.2l4.2-7.3 4.2 2.4v4.9h-8.4zm-.4 0h-11.3V43.1l3.5-2 12.1 7-4.3 7.4zm-11.5-12.7c-.1 0-.1.1-.1.1v12.5h-7.2V42.9c0-.1 0-.1-.1-.1l-3.4-2 7.1-4.1 7.1 4.1-3.4 2zm-3.4-6.2l6-3.5.1-.1.3-7.4 7.2 11.3-6.6 3.8-7-4.1zm19.3-2.6l5.1-3 2.2 4.2-3.3 5.7h-6.6l-2.6-4 5.2-2.9zm7.7 1.3v-.2l-2.2-4.3 6.5-3.7V41h-7.5l3.2-5.7zm22.6-10.7l-1.8 3.1-1.8 3.1-10.8-6.3h-.2l-3.4 2v-8.2l7.1-4.1v3.9c0 .1 0 .1.1.1l10.8 6.4zm5.8-10.1l-5.7 9.8-10.8-6.2v-4l12.1-7 4.4 7.4zM211.8 6c.1 0 .1 0 .1-.1l3.2-5.6 3.7 6.5-12 6.9V6.2l5-.2zm-5.2.3v7.6l-7.1 4.1v-7c0-.1 0-.1-.1-.1l-6.3-4 13.5-.6zm-28.5-3.5l4-2.6 9.9 6.4-11.8.5-2.1-4.3zm14.5 4.1l6.6 4.2v7.1l-6.1 3.5-7-3.6-5.6-10.7 12.1-.5zm-17.3.7l4.8-.2 5.4 10.4-10.5-5.4.3-4.8zm-4.8 2.8l4.3 2.2-.5 11.8-6.3-9.9 2.5-4.1zm-5.6 0l2.6 4.1-6.3 9.9-.5-11.8 4.2-2.2zm-4.8-2.8l.2 4.8-10.5 5.4 5.4-10.4 4.9.2zm-5.2-.2l-5.6 10.7-7 3.6-6.1-3.5v-7.1l6.6-4.2 12.1.5zM153.2.2l4 2.6-2.2 4.3-11.8-.5 10-6.4zm-11 6.7l-6.3 4-.1.1v7l-7.1-4.1V6.3l13.5.6zm-22-6.6l3.2 5.6.1.1 4.9.2v7.5l-12-6.9 3.8-6.5zm-8.4 4.2l4.2 2.4-4.2 7.3-4.2-7.3 4.2-2.4zM100 6c.1 0 .1 0 .1-.1l3.2-5.6 3.7 6.5-12 6.9V6.2l5-.2zm-5.2.3v7.6L87.7 18v-7c0-.1 0-.1-.1-.1l-6.3-4 13.5-.6zM66.3 2.8l4-2.6 9.9 6.4-11.6.5-2.3-4.3zm2.4 4.6l12.1-.5 6.6 4.2v7.1l-6.1 3.5-7-3.6-5.6-10.7zm-5.2.2l4.8-.2 5.4 10.4-10.5-5.4.3-4.8zm-4.8 2.8l4.3 2.2-.5 11.8-6.3-9.9 2.5-4.1zm-5.6 0l2.6 4.1-6.3 9.9-.5-11.8 4.2-2.2zm-4.8-2.8l.2 4.8L38 17.9l5.4-10.4 4.9.1zm-5.2-.2l-5.6 10.7-7 3.6-6.1-3.5v-7.1L31 6.9l12.1.5zM41.4.2l4 2.6-2.2 4.3-11.7-.5L41.4.2zm-11 6.7l-6.3 4-.1.1v7l-7-4.1V6.3l13.4.6zM4.7 6.8L8.4.3 11.6 6l.1.1 4.9.2v7.5l-11.9-7zM.2 14.5L4.5 7l12.1 7v4L5.8 24.3.2 14.5zm7.6 13.3L6 24.6l10.9-6.2c.1 0 .1-.1.1-.1v-3.9l7.1 4.1v8.2l-3.4-2h-.2L9.6 30.9l-1.8-3.1zM4 41v-6.4l5.5-3.2 5.6 9.6H4zm11.4 0l-5.7-9.8 10.8-6.3 3.5 2v14h-8.6zm9 0V27.1l6.5 3.7-2.2 4.3v.2l3.2 5.6h-7.5zm7.8 0l-3.3-5.7 2.2-4.2 5.1 3 5.1 3-2.6 4h-6.5zm6.9.2l2.6-4.1 6.5 3.7-12 6.9-3.7-6.5H39c0 .1 0 .1.1 0zM3.9 53.7V41.3h11.3l4.3 7.5-12.1 7-3.5-2.1zM19.7 49l3.7 6.5H17c-.1 0-.1 0-.1.1l-2.6 4.1L7.8 56l11.9-7zM6.5 63.9c0-.1 0-.1-.1-.1l-6-3.5 7.1-4.1L14 60 6.8 71.3l-.3-7.4zm7.8-3.8l5.1 3 5.1 3-6.4 12.4L7.4 84l-.6-12.1 7.5-11.8zM2.8 86.4L.2 82.3l6.3-9.9.5 11.8-4.2 2.2zm4.8 2.8l-.2-4.8L17.9 79l-5.4 10.4-4.9-.2zm5.2.2l5.6-10.7 7-3.6 6.1 3.5v7.1l-6.6 4.2-12.1-.5zM10.4 94l2.2-4.3 11.8.5-9.9 6.4-4.1-2.6zM25 90.3l13.9.6v11.8l-13.9.7-10.2-6.5L25 90.3zm-14.6 9.3l4.1-2.6 9.9 6.4-11.8.5-2.2-4.3zm14.5 4.1l6.6 4.2v7.1l-6.1 3.5-7-3.6-5.6-10.7 12.1-.5zm-17.3.7l4.8-.2 5.4 10.4-10.5-5.4.3-4.8zm-7.4 6.9l2.6-4.1 4.3 2.2-.5 11.8-6.4-9.9zm6.6 10.4l.6-12.1 10.8 5.6 6.4 12.4-5.1 3-5.1 3-7.6-11.9zM.3 133.4l6-3.5.1-.1.3-7.4 7.2 11.3-6.6 3.8-7-4.1zm13.9.5l2.6 4.1.1.1h6.5l-3.7 6.5-12-6.9 6.5-3.8zM4 152.3v-12.4l3.5-2 12.1 7-4.3 7.5H4zm11.6 0l4.2-7.3 4.2 2.4v4.9h-8.4zm8.8 0v-5-.1l-4.3-2.5 3.8-6.6h7.7v5l4.3 2.5-3.8 6.6h-7.7zm14.7.1l-.1-.1h-6.5l3.7-6.5 12 6.9-6.5 3.7-2.6-4zM4 159.1v-6.4h11.1l-5.6 9.6-5.5-3.2zm5.8 3.3l5.7-9.8h8.6v14l-3.5 2-10.8-6.2zM6 169l1.8-3.1 1.8-3.1 10.8 6.3h.2l3.4-2v8.2l-7.1 4.1v-3.9c0-.1 0-.1-.1-.1L6 169zM.2 179.1l5.7-9.8 10.8 6.2v4l-12.1 7-4.4-7.4zm11.6 8.5c-.1 0-.1 0-.1.1l-3.2 5.6-3.7-6.5 12-6.9v7.5l-5 .2zm5.2-.2v-7.6l7.1-4.1v7c0 .1 0 .1.1.1l6.3 4-13.5.6zm28.5 3.4l-4 2.6-9.9-6.4 11.8-.5 2.1 4.3zM31 186.7l-6.6-4.2v-7.1l6.1-3.5 7 3.6 5.6 10.7-12.1.5zm17.3-.7l-4.8.2-5.5-10.4 10.5 5.4-.2 4.8zm4.8-2.8l-4.3-2.2.5-11.8 6.3 9.9-2.5 4.1zm5.6 0l-2.6-4.1 6.3-9.9.6 11.8-4.3 2.2zm4.8 2.8l-.2-4.8 10.5-5.4-5.4 10.4-4.9-.2zm5.2.2l5.6-10.7 7-3.6 6.1 3.5v7.1l-6.6 4.2-12.1-.5zm1.7 7.2l-4-2.6 2.2-4.3 11.8.5-10 6.4zm11-6.6l6.3-4 .1-.1v-7l7.1 4.1v7.6l-13.5-.6zm22 6.5l-3.2-5.6-.1-.1-4.9-.2v-7.5l12 6.9-3.8 6.5zm8.4-4.2l-4.2-2.4 4.2-7.3 4.2 7.3-4.2 2.4zm11.8-1.5c-.1 0-.1 0-.1.1l-3.2 5.6-3.7-6.5 12-6.9v7.5l-5 .2zm5.2-.2v-7.6l7.1-4.1v7c0 .1 0 .1.1.1l6.3 4-13.5.6zm28.5 3.4l-4 2.6-9.9-6.4 11.8-.5 2.1 4.3zm-14.5-4.1l-6.6-4.2v-7.1l6.1-3.5 7 3.6 5.6 10.7-12.1.5zm17.3-.7l-4.8.2-5.4-10.4 10.5 5.4-.3 4.8zm4.8-2.8l-4.3-2.2.5-11.8 6.3 9.9-2.5 4.1zm5.6 0l-2.6-4.1 6.3-9.9.5 11.8-4.2 2.2zm4.8 2.8l-.2-4.8 10.5-5.4-5.4 10.4-4.9-.2zm5.2.2l5.6-10.7 7-3.6 6.1 3.5v7.1l-6.6 4.2-12.1-.5zm1.7 7.2l-4-2.6 2.2-4.3 11.8.5-10 6.4zm11-6.6l6.3-4 .1-.1v-7l7.1 4.1v7.6l-13.5-.6zm25.7 0l-3.7 6.5-3.2-5.6-.1-.1-4.9-.2v-7.5l11.9 6.9zm4.5-7.7l-4.3 7.5-12.1-7v-4l10.8-6.2 5.6 9.7zm-7.6-13.2l1.8 3.1-10.9 6.2c-.1 0-.1.1-.1.1v3.9l-7.1-4.1v-8.2l3.4 2h.2l10.8-6.3 1.9 3.3zm3.8-13.2v6.4l-5.5 3.2-5.6-9.6h11.1zm-11.5 0l5.7 9.8-10.8 6.3-3.5-2v-14h8.6zm-8.9 0v13.8l-6.5-3.7 2.2-4.3v-.1-.1l-3.2-5.6h7.5zm-7.9 0l3.3 5.7-2.2 4.2-5.1-3-5.1-3 2.6-4h6.5zm-6.8-.3l-2.6 4.1-6.5-3.7 12-6.9 3.7 6.5h-6.5c0-.1-.1 0-.1 0zm35.2-12.5v12.4h-11.3l-4.3-7.5 12.1-7 3.5 2.1zm-15.8 4.7l-3.7-6.5h6.5c.1 0 .1 0 .1-.1l2.6-4.1 6.5 3.7-12 7zm13.2-14.8c0 .1 0 .1.1.1l6 3.5-7.1 4.1-6.6-3.8 7.2-11.3.4 7.4zm-7.9 3.7l-5.1-3-5.1-3 6.4-12.4 10.8-5.6.6 12.1-7.6 11.9zm11.6-26.3l2.6 4.1-6.3 9.9-.5-11.8 4.2-2.2zm-4.9-2.8l.2 4.8-10.5 5.4 5.4-10.4 4.9.2zm-5.2-.2l-5.6 10.7-7 3.6-6.1-3.5v-7.1l6.6-4.2 12.1.5zm2.5-4.6l-2.2 4.3-11.8-.5 9.9-6.4 4.1 2.6zm-14.6 3.8l-13.9-.6V91l13.9-.6 10.2 6.5-10.2 6.5zm14.6-9.4l-4.1 2.6-9.9-6.4 11.8-.5 2.2 4.3zm-14.5-4.1l-6.6-4.2v-7.1l6.1-3.5 7 3.6 5.6 10.7-12.1.5zm17.2-.7l-4.8.2-5.4-10.4 10.5 5.4-.3 4.8zm7.5-6.9l-2.6 4.1-4.3-2.2.5-11.8 6.4 9.9zm-6.7-10.4l-.5 12.1-10.8-5.6-6.4-12.3 5.1-3 5.1-3 7.5 11.8zm6.5-11.7l-6 3.5-.1.1-.3 7.4-7.3-11.2 6.6-3.8 7.1 4zm-13.8-.5l-2.6-4.1-.1-.1h-6.5l3.7-6.5 12 6.9-6.5 3.8zm10.2-18.4v12.4l-3.5 2-12.1-7 4.3-7.5h11.3zm-11.7 0l-4.2 7.3-4.2-2.4v-4.9h8.4zm-8.7 0v5l4.3 2.5-3.8 6.6H192v-5-.1l-4.3-2.5 3.8-6.6h7.7zm-14.5 0h6.5l-3.7 6.5-12-6.9 6.5-3.7 2.6 4.1h.1z"/>
    </g>
  </g>
</svg>